<mxfile host="app.diagrams.net" agent="Mozilla/5.0 (Windows NT 10.0; Win64; x64) AppleWebKit/537.36 (KHTML, like Gecko) Chrome/135.0.0.0 Safari/537.36" version="26.2.13">
  <diagram name="Page-1" id="68UhMEflulMoAvJQQZpr">
    <mxGraphModel dx="851" dy="471" grid="1" gridSize="10" guides="1" tooltips="1" connect="1" arrows="1" fold="1" page="1" pageScale="1" pageWidth="850" pageHeight="1100" math="0" shadow="0">
      <root>
        <mxCell id="0" />
        <mxCell id="1" parent="0" />
        <mxCell id="1545ABVTpnN0l0uN4MO6-4" value="" style="rounded=0;whiteSpace=wrap;html=1;dashed=1;dashPattern=8 8;fillColor=#cce5ff;strokeColor=#36393d;" vertex="1" parent="1">
          <mxGeometry x="60" y="80" width="120" height="350" as="geometry" />
        </mxCell>
        <mxCell id="1545ABVTpnN0l0uN4MO6-5" value="0" style="rounded=0;whiteSpace=wrap;html=1;" vertex="1" parent="1">
          <mxGeometry x="75" y="110" width="90" height="50" as="geometry" />
        </mxCell>
        <mxCell id="1545ABVTpnN0l0uN4MO6-8" value="1" style="rounded=0;whiteSpace=wrap;html=1;" vertex="1" parent="1">
          <mxGeometry x="75" y="160" width="90" height="50" as="geometry" />
        </mxCell>
        <mxCell id="1545ABVTpnN0l0uN4MO6-9" value="2" style="rounded=0;whiteSpace=wrap;html=1;" vertex="1" parent="1">
          <mxGeometry x="75" y="210" width="90" height="50" as="geometry" />
        </mxCell>
        <mxCell id="1545ABVTpnN0l0uN4MO6-10" value="3" style="rounded=0;whiteSpace=wrap;html=1;" vertex="1" parent="1">
          <mxGeometry x="75" y="260" width="90" height="50" as="geometry" />
        </mxCell>
        <mxCell id="1545ABVTpnN0l0uN4MO6-11" value="4" style="rounded=0;whiteSpace=wrap;html=1;" vertex="1" parent="1">
          <mxGeometry x="75" y="310" width="90" height="50" as="geometry" />
        </mxCell>
        <mxCell id="1545ABVTpnN0l0uN4MO6-12" value="&lt;b&gt;Hash Bucket&lt;/b&gt;" style="text;html=1;align=center;verticalAlign=middle;resizable=0;points=[];autosize=1;strokeColor=none;fillColor=none;" vertex="1" parent="1">
          <mxGeometry x="70" y="80" width="100" height="30" as="geometry" />
        </mxCell>
        <mxCell id="1545ABVTpnN0l0uN4MO6-13" value="5" style="rounded=0;whiteSpace=wrap;html=1;" vertex="1" parent="1">
          <mxGeometry x="75" y="360" width="90" height="50" as="geometry" />
        </mxCell>
        <mxCell id="1545ABVTpnN0l0uN4MO6-18" value="" style="rounded=0;whiteSpace=wrap;html=1;dashed=1;dashPattern=8 8;strokeColor=#36393d;align=center;verticalAlign=middle;fontFamily=Helvetica;fontSize=12;fillColor=#cce5ff;" vertex="1" parent="1">
          <mxGeometry x="251" y="50" width="215" height="180" as="geometry" />
        </mxCell>
        <mxCell id="1545ABVTpnN0l0uN4MO6-19" value="&lt;blockquote style=&quot;margin: 0 0 0 40px; border: none; padding: 0px;&quot;&gt;&lt;font style=&quot;font-size: 15px;&quot;&gt;&lt;b&gt;&lt;font style=&quot;color: rgb(0, 204, 0);&quot;&gt;&lt;span style=&quot;background-color: transparent;&quot;&gt;slot&lt;/span&gt; size:8B&lt;/font&gt;&lt;/b&gt;&lt;br&gt;blocksize:4096B&lt;br&gt;ptr to freeSlot&lt;br&gt;ptr to c&lt;span style=&quot;background-color: transparent; color: light-dark(rgb(0, 0, 0), rgb(255, 255, 255));&quot;&gt;urSlot&lt;/span&gt;&lt;/font&gt;&lt;/blockquote&gt;&lt;div&gt;&lt;font style=&quot;font-size: 15px;&quot;&gt;&lt;span style=&quot;white-space: pre;&quot;&gt;&#x9;&lt;/span&gt;&amp;nbsp; ptr to firstBlock&lt;/font&gt;&lt;/div&gt;" style="shape=cube;whiteSpace=wrap;html=1;boundedLbl=1;backgroundOutline=1;darkOpacity=0.05;darkOpacity2=0.1;rounded=0;strokeColor=default;align=left;verticalAlign=middle;fontFamily=Helvetica;fontSize=12;fontColor=default;fillColor=default;" vertex="1" parent="1">
          <mxGeometry x="266" y="80" width="190" height="140" as="geometry" />
        </mxCell>
        <mxCell id="1545ABVTpnN0l0uN4MO6-20" value="&lt;b&gt;memory pool&lt;/b&gt;" style="text;html=1;align=center;verticalAlign=middle;resizable=0;points=[];autosize=1;strokeColor=none;fillColor=none;fontFamily=Helvetica;fontSize=12;fontColor=default;" vertex="1" parent="1">
          <mxGeometry x="301" y="50" width="100" height="30" as="geometry" />
        </mxCell>
        <mxCell id="1545ABVTpnN0l0uN4MO6-21" value="" style="rounded=0;whiteSpace=wrap;html=1;dashed=1;dashPattern=8 8;strokeColor=#36393d;align=center;verticalAlign=middle;fontFamily=Helvetica;fontSize=12;fillColor=#cce5ff;" vertex="1" parent="1">
          <mxGeometry x="520" y="90" width="300" height="110" as="geometry" />
        </mxCell>
        <mxCell id="1545ABVTpnN0l0uN4MO6-22" value="&lt;b&gt;real Memory&lt;/b&gt;" style="text;html=1;align=center;verticalAlign=middle;resizable=0;points=[];autosize=1;strokeColor=none;fillColor=none;fontFamily=Helvetica;fontSize=12;fontColor=default;" vertex="1" parent="1">
          <mxGeometry x="620" y="85" width="90" height="30" as="geometry" />
        </mxCell>
        <mxCell id="1545ABVTpnN0l0uN4MO6-33" value="" style="shape=cube;whiteSpace=wrap;html=1;boundedLbl=1;backgroundOutline=1;darkOpacity=0.05;darkOpacity2=0.1;rounded=0;strokeColor=default;align=center;verticalAlign=middle;fontFamily=Helvetica;fontSize=12;fontColor=default;fillColor=default;" vertex="1" parent="1">
          <mxGeometry x="530" y="115" width="280" height="70" as="geometry" />
        </mxCell>
        <mxCell id="1545ABVTpnN0l0uN4MO6-36" value="" style="endArrow=none;html=1;rounded=0;fontFamily=Helvetica;fontSize=12;fontColor=default;" edge="1" parent="1">
          <mxGeometry width="50" height="50" relative="1" as="geometry">
            <mxPoint x="671" y="185" as="sourcePoint" />
            <mxPoint x="670" y="135" as="targetPoint" />
          </mxGeometry>
        </mxCell>
        <mxCell id="1545ABVTpnN0l0uN4MO6-37" value="ptr to nextBlock" style="text;html=1;align=center;verticalAlign=middle;whiteSpace=wrap;rounded=0;fontFamily=Helvetica;fontSize=12;fontColor=default;" vertex="1" parent="1">
          <mxGeometry x="560" y="145" width="90" height="30" as="geometry" />
        </mxCell>
        <mxCell id="1545ABVTpnN0l0uN4MO6-38" value="slots" style="text;html=1;align=center;verticalAlign=middle;whiteSpace=wrap;rounded=0;fontFamily=Helvetica;fontSize=12;fontColor=default;" vertex="1" parent="1">
          <mxGeometry x="710" y="145" width="60" height="30" as="geometry" />
        </mxCell>
        <mxCell id="1545ABVTpnN0l0uN4MO6-39" value="" style="shape=cube;whiteSpace=wrap;html=1;boundedLbl=1;backgroundOutline=1;darkOpacity=0.05;darkOpacity2=0.1;rounded=0;strokeColor=default;align=center;verticalAlign=middle;fontFamily=Helvetica;fontSize=12;fontColor=default;fillColor=default;" vertex="1" parent="1">
          <mxGeometry x="530" y="230" width="280" height="70" as="geometry" />
        </mxCell>
        <mxCell id="1545ABVTpnN0l0uN4MO6-40" value="" style="endArrow=none;html=1;rounded=0;fontFamily=Helvetica;fontSize=12;fontColor=default;" edge="1" parent="1">
          <mxGeometry width="50" height="50" relative="1" as="geometry">
            <mxPoint x="671" y="300" as="sourcePoint" />
            <mxPoint x="670" y="250" as="targetPoint" />
          </mxGeometry>
        </mxCell>
        <mxCell id="1545ABVTpnN0l0uN4MO6-41" value="ptr to nextBlock" style="text;html=1;align=center;verticalAlign=middle;whiteSpace=wrap;rounded=0;fontFamily=Helvetica;fontSize=12;fontColor=default;" vertex="1" parent="1">
          <mxGeometry x="565" y="260" width="90" height="30" as="geometry" />
        </mxCell>
        <mxCell id="1545ABVTpnN0l0uN4MO6-42" value="slots" style="text;html=1;align=center;verticalAlign=middle;whiteSpace=wrap;rounded=0;fontFamily=Helvetica;fontSize=12;fontColor=default;" vertex="1" parent="1">
          <mxGeometry x="715" y="260" width="60" height="30" as="geometry" />
        </mxCell>
        <mxCell id="1545ABVTpnN0l0uN4MO6-43" value="" style="shape=cube;whiteSpace=wrap;html=1;boundedLbl=1;backgroundOutline=1;darkOpacity=0.05;darkOpacity2=0.1;rounded=0;strokeColor=default;align=center;verticalAlign=middle;fontFamily=Helvetica;fontSize=12;fontColor=default;fillColor=default;" vertex="1" parent="1">
          <mxGeometry x="540" y="333" width="280" height="70" as="geometry" />
        </mxCell>
        <mxCell id="1545ABVTpnN0l0uN4MO6-44" value="" style="endArrow=none;html=1;rounded=0;fontFamily=Helvetica;fontSize=12;fontColor=default;" edge="1" parent="1">
          <mxGeometry width="50" height="50" relative="1" as="geometry">
            <mxPoint x="681" y="403" as="sourcePoint" />
            <mxPoint x="680" y="353" as="targetPoint" />
          </mxGeometry>
        </mxCell>
        <mxCell id="1545ABVTpnN0l0uN4MO6-45" value="ptr to nextBlock" style="text;html=1;align=center;verticalAlign=middle;whiteSpace=wrap;rounded=0;fontFamily=Helvetica;fontSize=12;fontColor=default;" vertex="1" parent="1">
          <mxGeometry x="575" y="363" width="90" height="30" as="geometry" />
        </mxCell>
        <mxCell id="1545ABVTpnN0l0uN4MO6-46" value="slots" style="text;html=1;align=center;verticalAlign=middle;whiteSpace=wrap;rounded=0;fontFamily=Helvetica;fontSize=12;fontColor=default;" vertex="1" parent="1">
          <mxGeometry x="725" y="363" width="60" height="30" as="geometry" />
        </mxCell>
        <mxCell id="1545ABVTpnN0l0uN4MO6-48" value="" style="endArrow=classic;html=1;rounded=0;fontFamily=Helvetica;fontSize=12;fontColor=default;exitX=0.252;exitY=0.971;exitDx=0;exitDy=0;exitPerimeter=0;" edge="1" parent="1" source="1545ABVTpnN0l0uN4MO6-33">
          <mxGeometry width="50" height="50" relative="1" as="geometry">
            <mxPoint x="580" y="240" as="sourcePoint" />
            <mxPoint x="602" y="233" as="targetPoint" />
            <Array as="points" />
          </mxGeometry>
        </mxCell>
        <mxCell id="1545ABVTpnN0l0uN4MO6-52" value="" style="endArrow=classic;html=1;rounded=0;fontFamily=Helvetica;fontSize=12;fontColor=default;exitX=0.261;exitY=1.014;exitDx=0;exitDy=0;exitPerimeter=0;entryX=0.225;entryY=0.386;entryDx=0;entryDy=0;entryPerimeter=0;" edge="1" parent="1" source="1545ABVTpnN0l0uN4MO6-39" target="1545ABVTpnN0l0uN4MO6-43">
          <mxGeometry width="50" height="50" relative="1" as="geometry">
            <mxPoint x="590" y="330" as="sourcePoint" />
            <mxPoint x="640" y="280" as="targetPoint" />
          </mxGeometry>
        </mxCell>
        <mxCell id="1545ABVTpnN0l0uN4MO6-53" value="" style="endArrow=classic;html=1;rounded=0;fontFamily=Helvetica;fontSize=12;fontColor=default;entryX=-0.005;entryY=0.582;entryDx=0;entryDy=0;entryPerimeter=0;" edge="1" parent="1" target="1545ABVTpnN0l0uN4MO6-21">
          <mxGeometry width="50" height="50" relative="1" as="geometry">
            <mxPoint x="430" y="200" as="sourcePoint" />
            <mxPoint x="480" y="150" as="targetPoint" />
          </mxGeometry>
        </mxCell>
        <mxCell id="1545ABVTpnN0l0uN4MO6-56" value="" style="endArrow=classic;html=1;rounded=0;fontFamily=Helvetica;fontSize=12;fontColor=default;entryX=0.018;entryY=0.354;entryDx=0;entryDy=0;entryPerimeter=0;" edge="1" parent="1" target="1545ABVTpnN0l0uN4MO6-19">
          <mxGeometry width="50" height="50" relative="1" as="geometry">
            <mxPoint x="160" y="140" as="sourcePoint" />
            <mxPoint x="210" y="90" as="targetPoint" />
          </mxGeometry>
        </mxCell>
        <mxCell id="1545ABVTpnN0l0uN4MO6-57" value="" style="rounded=0;whiteSpace=wrap;html=1;dashed=1;dashPattern=8 8;strokeColor=#36393d;align=center;verticalAlign=middle;fontFamily=Helvetica;fontSize=12;fillColor=#cce5ff;" vertex="1" parent="1">
          <mxGeometry x="243.5" y="320" width="215" height="180" as="geometry" />
        </mxCell>
        <mxCell id="1545ABVTpnN0l0uN4MO6-58" value="&lt;blockquote style=&quot;margin: 0 0 0 40px; border: none; padding: 0px;&quot;&gt;&lt;font style=&quot;font-size: 15px;&quot;&gt;&lt;b&gt;&lt;font style=&quot;color: rgb(0, 153, 0);&quot;&gt;&lt;span style=&quot;background-color: transparent;&quot;&gt;slot&lt;/span&gt; size:48B&lt;/font&gt;&lt;/b&gt;&lt;br&gt;blocksize:4096B&lt;br&gt;ptr to freeSlot&lt;br&gt;ptr to c&lt;span style=&quot;background-color: transparent; color: light-dark(rgb(0, 0, 0), rgb(255, 255, 255));&quot;&gt;urSlot&lt;/span&gt;&lt;/font&gt;&lt;/blockquote&gt;&lt;div&gt;&lt;font style=&quot;font-size: 15px;&quot;&gt;&lt;span style=&quot;white-space: pre;&quot;&gt;&#x9;&lt;/span&gt;&amp;nbsp; ptr to firstBlock&lt;/font&gt;&lt;/div&gt;" style="shape=cube;whiteSpace=wrap;html=1;boundedLbl=1;backgroundOutline=1;darkOpacity=0.05;darkOpacity2=0.1;rounded=0;strokeColor=default;align=left;verticalAlign=middle;fontFamily=Helvetica;fontSize=12;fontColor=default;fillColor=default;" vertex="1" parent="1">
          <mxGeometry x="258.5" y="350" width="190" height="140" as="geometry" />
        </mxCell>
        <mxCell id="1545ABVTpnN0l0uN4MO6-59" value="&lt;b&gt;memory pool&lt;/b&gt;" style="text;html=1;align=center;verticalAlign=middle;resizable=0;points=[];autosize=1;strokeColor=none;fillColor=none;fontFamily=Helvetica;fontSize=12;fontColor=default;" vertex="1" parent="1">
          <mxGeometry x="293.5" y="320" width="100" height="30" as="geometry" />
        </mxCell>
        <mxCell id="1545ABVTpnN0l0uN4MO6-61" value="" style="endArrow=classic;html=1;rounded=0;fontFamily=Helvetica;fontSize=12;fontColor=default;entryX=0.026;entryY=0.225;entryDx=0;entryDy=0;entryPerimeter=0;" edge="1" parent="1" target="1545ABVTpnN0l0uN4MO6-58">
          <mxGeometry width="50" height="50" relative="1" as="geometry">
            <mxPoint x="160" y="390" as="sourcePoint" />
            <mxPoint x="210" y="340" as="targetPoint" />
          </mxGeometry>
        </mxCell>
        <mxCell id="1545ABVTpnN0l0uN4MO6-62" value="&lt;font style=&quot;color: rgb(76, 0, 153);&quot;&gt;Block&lt;/font&gt;" style="text;html=1;align=center;verticalAlign=middle;whiteSpace=wrap;rounded=0;fontFamily=Helvetica;fontSize=12;fontColor=default;" vertex="1" parent="1">
          <mxGeometry x="630" y="110" width="60" height="30" as="geometry" />
        </mxCell>
        <mxCell id="1545ABVTpnN0l0uN4MO6-63" value="&lt;font style=&quot;color: rgb(76, 0, 153);&quot;&gt;Block&lt;/font&gt;" style="text;html=1;align=center;verticalAlign=middle;whiteSpace=wrap;rounded=0;fontFamily=Helvetica;fontSize=12;fontColor=default;" vertex="1" parent="1">
          <mxGeometry x="640" y="223" width="60" height="30" as="geometry" />
        </mxCell>
        <mxCell id="1545ABVTpnN0l0uN4MO6-64" value="&lt;font style=&quot;color: rgb(76, 0, 153);&quot;&gt;Block&lt;/font&gt;" style="text;html=1;align=center;verticalAlign=middle;whiteSpace=wrap;rounded=0;fontFamily=Helvetica;fontSize=12;fontColor=default;" vertex="1" parent="1">
          <mxGeometry x="640" y="330" width="60" height="30" as="geometry" />
        </mxCell>
      </root>
    </mxGraphModel>
  </diagram>
</mxfile>
